<svg width="217" height="101" viewBox="0 0 217 101" fill="none" xmlns="http://www.w3.org/2000/svg">
<rect width="212" height="73" transform="translate(0 4)" fill="#58BCEB"/>
<path d="M27.432 43.528V40.144C27.432 36.112 24.792 34.096 19.512 34.096C16.056 34.096 12.864 34.84 9.936 36.328C8.928 36.856 8.376 37.12 8.28 37.12C7.8 37.12 7.248 36.64 6.624 35.68C6.048 34.72 5.76 34 5.76 33.52C5.76 32.512 7.152 31.504 9.936 30.496C12.768 29.44 16.152 28.912 20.088 28.912C24.024 28.912 27.24 29.92 29.736 31.936C32.232 33.904 33.48 36.664 33.48 40.216V56.344C33.48 59.224 33.6 61.312 33.84 62.608C34.176 64.384 34.344 65.32 34.344 65.416C34.344 65.992 33.888 66.424 32.976 66.712C32.064 66.952 31.344 67.072 30.816 67.072C30.336 67.072 30 67.024 29.808 66.928C29.616 66.832 29.424 66.664 29.232 66.424C29.088 66.184 28.968 65.968 28.872 65.776C28.776 65.536 28.68 65.224 28.584 64.84C28.488 64.456 28.392 64.168 28.296 63.976C28.248 63.736 28.176 63.4 28.08 62.968C28.032 62.488 27.984 62.176 27.936 62.032C24.672 65.632 20.64 67.432 15.84 67.432C12.144 67.432 9.168 66.52 6.912 64.696C4.656 62.872 3.528 60.064 3.528 56.272C3.528 52.48 4.824 49.648 7.416 47.776C10.056 45.856 13.008 44.704 16.272 44.32C19.536 43.888 23.256 43.624 27.432 43.528ZM10.008 56.272C10.008 60.208 12.048 62.176 16.128 62.176C18.48 62.176 20.496 61.744 22.176 60.88C23.904 60.016 25.656 58.792 27.432 57.208V48.712C21.432 48.712 17.568 49.048 15.84 49.72C14.928 50.056 13.968 50.488 12.96 51.016C10.992 52.024 10.008 53.776 10.008 56.272ZM56.1544 63.112C56.1544 62.632 56.4424 61.912 57.0184 60.952C57.6424 59.992 58.1944 59.512 58.6744 59.512C58.7224 59.512 59.1064 59.752 59.8264 60.232C60.5464 60.664 61.5784 61.12 62.9224 61.6C64.2664 62.032 65.8744 62.248 67.7464 62.248C69.6664 62.248 71.2264 61.72 72.4264 60.664C73.6744 59.56 74.2984 58.096 74.2984 56.272C74.2984 54.4 73.7464 52.96 72.6424 51.952C71.5864 50.896 69.4504 49.912 66.2344 49C63.0184 48.088 60.6904 46.936 59.2504 45.544C57.8104 44.104 57.0904 41.944 57.0904 39.064C57.0904 36.184 58.1944 33.784 60.4024 31.864C62.6104 29.896 65.4904 28.912 69.0424 28.912C71.4904 28.912 73.6744 29.224 75.5944 29.848C77.5144 30.472 78.4744 31.168 78.4744 31.936C78.4744 32.56 78.1864 33.376 77.6104 34.384C77.0824 35.344 76.6024 35.824 76.1704 35.824C76.1224 35.824 75.8104 35.68 75.2344 35.392C73.6024 34.528 71.7544 34.096 69.6904 34.096C67.6744 34.096 66.0904 34.528 64.9384 35.392C63.8344 36.208 63.2824 37.288 63.2824 38.632C63.2824 39.976 63.6904 41.032 64.5064 41.8C65.3704 42.568 66.8104 43.264 68.8264 43.888C73.3384 45.28 76.3864 46.816 77.9704 48.496C79.6024 50.128 80.4184 52.624 80.4184 55.984C80.4184 59.296 79.2184 62.032 76.8184 64.192C74.4664 66.352 71.6344 67.432 68.3224 67.432C65.0104 67.432 62.1544 66.952 59.7544 65.992C57.3544 64.984 56.1544 64.024 56.1544 63.112ZM103.897 65.56V14.44C103.897 13.384 104.857 12.856 106.777 12.856H107.065C108.985 12.856 109.945 13.384 109.945 14.44V32.584C113.113 30.136 116.713 28.912 120.745 28.912C124.777 28.912 128.137 30.592 130.825 33.952C133.513 37.264 134.857 41.872 134.857 47.776V48.424C134.857 53.992 133.585 58.552 131.041 62.104C128.545 65.656 125.185 67.432 120.961 67.432C116.737 67.432 112.897 65.632 109.441 62.032L108.289 66.28C108.049 66.856 107.401 67.144 106.345 67.144H106.057C104.617 67.144 103.897 66.616 103.897 65.56ZM109.945 57.208C112.969 60.52 116.065 62.176 119.233 62.176C125.425 62.176 128.521 57.328 128.521 47.632C128.521 43.36 127.705 40.072 126.073 37.768C124.489 35.464 122.161 34.288 119.089 34.24H118.657C115.441 34.24 112.537 35.32 109.945 37.48V57.208ZM173.761 67.432C168.385 67.432 164.257 65.8 161.377 62.536C158.545 59.272 157.129 54.544 157.129 48.352C157.129 42.112 158.569 37.312 161.449 33.952C164.329 30.592 168.433 28.912 173.761 28.912C179.089 28.912 183.145 30.592 185.929 33.952C188.761 37.264 190.177 42.064 190.177 48.352C190.177 54.592 188.785 59.344 186.001 62.608C183.265 65.824 179.185 67.432 173.761 67.432ZM165.913 58.864C167.545 61.12 170.113 62.248 173.617 62.248C177.121 62.248 179.713 61.12 181.393 58.864C183.073 56.56 183.913 53.008 183.913 48.208C183.913 43.408 183.073 39.856 181.393 37.552C179.713 35.248 177.121 34.096 173.617 34.096C170.113 34.096 167.545 35.248 165.913 37.552C164.281 39.808 163.465 43.36 163.465 48.208C163.465 53.008 164.281 56.56 165.913 58.864Z" transform="translate(8)" fill="white"/>
<path d="M3.376 15.112C2.56533 15.112 1.92533 14.9093 1.456 14.504C0.986667 14.088 0.752 13.496 0.752 12.728C0.752 11.6507 1.2 10.8987 2.096 10.472C2.992 10.0347 4.24533 9.81067 5.856 9.8V9.112C5.856 8.73867 5.728 8.44 5.472 8.216C5.216 7.992 4.80533 7.88 4.24 7.88C3.80267 7.88 3.41867 7.93333 3.088 8.04C2.768 8.136 2.49067 8.24267 2.256 8.36C2.032 8.46667 1.904 8.52 1.872 8.52C1.75467 8.52 1.616 8.39733 1.456 8.152C1.30667 7.896 1.232 7.704 1.232 7.576C1.232 7.42667 1.37067 7.272 1.648 7.112C1.936 6.94133 2.30933 6.80267 2.768 6.696C3.23733 6.57867 3.73333 6.52 4.256 6.52C5.312 6.52 6.112 6.74933 6.656 7.208C7.21067 7.656 7.488 8.28 7.488 9.08V12.504C7.488 13.2187 7.52 13.736 7.584 14.056C7.648 14.376 7.68 14.5573 7.68 14.6C7.68 14.7493 7.54667 14.856 7.28 14.92C7.024 14.984 6.784 15.016 6.56 15.016C6.38933 15.016 6.26667 14.936 6.192 14.776C6.128 14.616 6.07467 14.4453 6.032 14.264C6 14.0827 5.97867 13.96 5.968 13.896C5.68 14.2373 5.31733 14.5253 4.88 14.76C4.45333 14.9947 3.952 15.112 3.376 15.112ZM3.648 13.736C4.11733 13.736 4.528 13.64 4.88 13.448C5.232 13.256 5.55733 12.9947 5.856 12.664V11.064C4.82133 11.064 3.99467 11.1653 3.376 11.368C2.75733 11.56 2.448 11.9707 2.448 12.6C2.448 12.9627 2.54933 13.2453 2.752 13.448C2.96533 13.64 3.264 13.736 3.648 13.736ZM12.5747 15.112C11.9667 15.112 11.4281 14.936 10.9588 14.584C10.5001 14.2213 10.1428 13.7147 9.88675 13.064C9.63075 12.4133 9.50275 11.6667 9.50275 10.824C9.50275 9.928 9.63608 9.16 9.90275 8.52C10.1801 7.86933 10.5641 7.37333 11.0547 7.032C11.5454 6.69067 12.1214 6.52 12.7828 6.52C13.2094 6.52 13.5881 6.584 13.9187 6.712C14.2601 6.84 14.5854 7.02133 14.8948 7.256V3.352C14.8948 3.08533 15.1347 2.952 15.6147 2.952H15.7908C16.2814 2.952 16.5268 3.08533 16.5268 3.352V12.504C16.5268 13.2187 16.5588 13.736 16.6227 14.056C16.6867 14.376 16.7188 14.5573 16.7188 14.6C16.7188 14.7493 16.5854 14.856 16.3187 14.92C16.0521 14.984 15.8067 15.016 15.5827 15.016C15.4227 15.016 15.3054 14.936 15.2308 14.776C15.1667 14.616 15.1134 14.4507 15.0708 14.28C15.0388 14.0987 15.0174 13.976 15.0068 13.912C14.3028 14.712 13.4921 15.112 12.5747 15.112ZM12.9748 13.72C13.3054 13.72 13.6361 13.6293 13.9668 13.448C14.2974 13.256 14.6068 12.9947 14.8948 12.664V8.504C14.3828 8.10933 13.8067 7.912 13.1667 7.912C12.5161 7.912 12.0254 8.152 11.6948 8.632C11.3641 9.112 11.1988 9.81067 11.1988 10.728C11.1988 11.688 11.3481 12.4293 11.6467 12.952C11.9561 13.464 12.3988 13.72 12.9748 13.72ZM21.3656 15.032C20.9496 15.032 20.715 14.9413 20.6616 14.76L18.0856 7.128C18.0536 7 18.0376 6.92 18.0376 6.888C18.0376 6.696 18.2936 6.6 18.8056 6.6H19.0136C19.4403 6.6 19.6803 6.69067 19.7336 6.872L21.1576 11.368C21.2643 11.6667 21.4403 12.328 21.6856 13.352H21.7496L21.8936 12.728C22.0003 12.2267 22.1123 11.7787 22.2296 11.384L23.6696 6.872C23.723 6.69067 23.963 6.6 24.3896 6.6H24.5496C25.0083 6.6 25.2376 6.696 25.2376 6.888C25.2376 6.94133 25.2216 7.02667 25.1896 7.144L22.6296 14.76C22.5763 14.9413 22.3363 15.032 21.9096 15.032H21.3656ZM27.6432 5.256C27.0886 5.256 26.8112 5.10667 26.8112 4.808V3.864C26.8112 3.56533 27.0992 3.416 27.6753 3.416C28.2299 3.416 28.5073 3.56533 28.5073 3.864V4.808C28.5073 5.10667 28.2192 5.256 27.6432 5.256ZM27.5793 15.032C27.0886 15.032 26.8433 14.8987 26.8433 14.632V7C26.8433 6.73333 27.0886 6.6 27.5793 6.6H27.7392C28.2299 6.6 28.4753 6.73333 28.4753 7V14.632C28.4753 14.8987 28.2299 15.032 27.7392 15.032H27.5793ZM32.8856 15.144C32.4376 15.144 32.0163 15.0907 31.6216 14.984C31.227 14.8773 30.907 14.744 30.6616 14.584C30.427 14.424 30.3096 14.264 30.3096 14.104C30.3096 13.9653 30.3843 13.7787 30.5336 13.544C30.6936 13.2987 30.8323 13.176 30.9496 13.176C30.971 13.176 31.0776 13.2347 31.2696 13.352C31.4616 13.4587 31.6803 13.5547 31.9256 13.64C32.171 13.7253 32.4483 13.768 32.7576 13.768C33.6856 13.768 34.1496 13.3947 34.1496 12.648C34.1496 12.3173 34.0323 12.0613 33.7976 11.88C33.563 11.688 33.1683 11.5013 32.6136 11.32C31.867 11.096 31.3283 10.8027 30.9976 10.44C30.667 10.0667 30.5016 9.56 30.5016 8.92C30.5016 8.20533 30.7523 7.62933 31.2536 7.192C31.755 6.744 32.411 6.52 33.2216 6.52C33.7763 6.52 34.283 6.59467 34.7416 6.744C35.2003 6.88267 35.4296 7.05867 35.4296 7.272C35.4296 7.432 35.3603 7.63467 35.2216 7.88C35.0936 8.12533 34.971 8.248 34.8536 8.248C34.811 8.23733 34.667 8.17333 34.4216 8.056C34.1763 7.928 33.8456 7.864 33.4296 7.864C33.0563 7.864 32.7523 7.944 32.5176 8.104C32.283 8.25333 32.1656 8.46667 32.1656 8.744C32.1656 9.07467 32.2776 9.34133 32.5016 9.544C32.7363 9.736 33.0936 9.91733 33.5736 10.088C34.139 10.28 34.5763 10.4773 34.8856 10.68C35.2056 10.8827 35.435 11.1333 35.5736 11.432C35.723 11.7307 35.7976 12.1093 35.7976 12.568C35.7976 13.0587 35.6696 13.5013 35.4136 13.896C35.1683 14.2907 34.8216 14.6 34.3736 14.824C33.9363 15.0373 33.4403 15.144 32.8856 15.144ZM41.191 15.112C38.5243 15.112 37.191 13.6987 37.191 10.872C37.191 9.432 37.5163 8.34933 38.167 7.624C38.8177 6.888 39.751 6.52 40.967 6.52C42.087 6.52 42.9243 6.88267 43.479 7.608C44.0337 8.33333 44.311 9.36267 44.311 10.696C44.311 10.8027 44.231 10.952 44.071 11.144C43.9217 11.336 43.799 11.432 43.703 11.432H38.919C38.983 12.2427 39.2017 12.8347 39.575 13.208C39.9483 13.5707 40.4923 13.752 41.207 13.752C41.6123 13.752 41.9643 13.704 42.263 13.608C42.5723 13.512 42.8337 13.4107 43.047 13.304C43.271 13.1867 43.399 13.128 43.431 13.128C43.5483 13.128 43.6817 13.2507 43.831 13.496C43.991 13.7413 44.071 13.9227 44.071 14.04C44.071 14.2107 43.927 14.3813 43.639 14.552C43.3617 14.712 42.999 14.8453 42.551 14.952C42.103 15.0587 41.6497 15.112 41.191 15.112ZM42.631 10.152C42.631 9.416 42.487 8.856 42.199 8.472C41.9217 8.07733 41.5003 7.88 40.935 7.88C39.7297 7.88 39.0577 8.63733 38.919 10.152H42.631ZM48.664 15.112C47.8533 15.112 47.224 14.888 46.776 14.44C46.3387 13.9813 46.12 13.3413 46.12 12.52V7C46.12 6.73333 46.3653 6.6 46.856 6.6H47.032C47.5227 6.6 47.768 6.73333 47.768 7V12.328C47.768 12.7653 47.8907 13.1067 48.136 13.352C48.3813 13.5867 48.7387 13.704 49.208 13.704C49.5493 13.704 49.88 13.608 50.2 13.416C50.52 13.2133 50.7867 12.9573 51 12.648V7C51 6.73333 51.2453 6.6 51.736 6.6H51.912C52.4027 6.6 52.648 6.73333 52.648 7V12.504C52.648 13.2187 52.68 13.736 52.744 14.056C52.808 14.376 52.84 14.5573 52.84 14.6C52.84 14.7493 52.7067 14.856 52.44 14.92C52.1733 14.984 51.928 15.016 51.704 15.016C51.544 15.016 51.4267 14.936 51.352 14.776C51.288 14.616 51.2347 14.4453 51.192 14.264C51.16 14.0827 51.1387 13.96 51.128 13.896C50.8187 14.2693 50.4453 14.568 50.008 14.792C49.5707 15.0053 49.1227 15.112 48.664 15.112ZM55.9543 15.032C55.4636 15.032 55.2183 14.8987 55.2183 14.632V9.176C55.2183 8.472 55.1862 7.96 55.1222 7.64C55.0582 7.32 55.0263 7.13867 55.0263 7.096C55.0263 6.94667 55.1596 6.84 55.4262 6.776C55.6929 6.712 55.9383 6.68 56.1623 6.68C56.3222 6.68 56.4343 6.75467 56.4983 6.904C56.5729 7.05333 56.6263 7.21333 56.6583 7.384C56.7009 7.55467 56.7276 7.672 56.7383 7.736C57.2822 6.92533 57.8902 6.52 58.5623 6.52C58.8716 6.52 59.1009 6.58933 59.2502 6.728C59.4103 6.86667 59.4903 7.032 59.4903 7.224C59.4903 7.416 59.4529 7.62933 59.3783 7.864C59.3036 8.09867 59.2182 8.216 59.1223 8.216C59.0582 8.216 58.9462 8.18933 58.7863 8.136C58.6369 8.08267 58.4662 8.056 58.2743 8.056C57.9436 8.056 57.6502 8.168 57.3942 8.392C57.1489 8.60533 56.9676 8.80267 56.8503 8.984V14.632C56.8503 14.8987 56.6102 15.032 56.1302 15.032H55.9543ZM62.8856 15.144C62.4376 15.144 62.0163 15.0907 61.6216 14.984C61.227 14.8773 60.907 14.744 60.6616 14.584C60.427 14.424 60.3096 14.264 60.3096 14.104C60.3096 13.9653 60.3843 13.7787 60.5336 13.544C60.6936 13.2987 60.8323 13.176 60.9496 13.176C60.971 13.176 61.0776 13.2347 61.2696 13.352C61.4616 13.4587 61.6803 13.5547 61.9256 13.64C62.171 13.7253 62.4483 13.768 62.7576 13.768C63.6856 13.768 64.1496 13.3947 64.1496 12.648C64.1496 12.3173 64.0323 12.0613 63.7976 11.88C63.563 11.688 63.1683 11.5013 62.6136 11.32C61.867 11.096 61.3283 10.8027 60.9976 10.44C60.667 10.0667 60.5016 9.56 60.5016 8.92C60.5016 8.20533 60.7523 7.62933 61.2536 7.192C61.755 6.744 62.411 6.52 63.2216 6.52C63.7763 6.52 64.283 6.59467 64.7416 6.744C65.2003 6.88267 65.4296 7.05867 65.4296 7.272C65.4296 7.432 65.3603 7.63467 65.2216 7.88C65.0936 8.12533 64.971 8.248 64.8536 8.248C64.811 8.23733 64.667 8.17333 64.4216 8.056C64.1763 7.928 63.8456 7.864 63.4296 7.864C63.0563 7.864 62.7523 7.944 62.5176 8.104C62.283 8.25333 62.1656 8.46667 62.1656 8.744C62.1656 9.07467 62.2776 9.34133 62.5016 9.544C62.7363 9.736 63.0936 9.91733 63.5736 10.088C64.139 10.28 64.5763 10.4773 64.8856 10.68C65.2056 10.8827 65.435 11.1333 65.5736 11.432C65.723 11.7307 65.7976 12.1093 65.7976 12.568C65.7976 13.0587 65.6696 13.5013 65.4136 13.896C65.1683 14.2907 64.8216 14.6 64.3736 14.824C63.9363 15.0373 63.4403 15.144 62.8856 15.144ZM75.4348 15.112C74.9761 15.112 74.5388 15.0107 74.1228 14.808C73.7174 14.5947 73.3494 14.296 73.0187 13.912C72.9761 14.2 72.8961 14.488 72.7787 14.776C72.7468 14.872 72.6827 14.9413 72.5868 14.984C72.5014 15.016 72.3734 15.032 72.2027 15.032H72.1068C71.7014 15.032 71.4987 14.8987 71.4987 14.632V3.352C71.4987 3.08533 71.7387 2.952 72.2188 2.952H72.3948C72.8854 2.952 73.1307 3.08533 73.1307 3.352V7.256C73.4401 7.02133 73.7601 6.84 74.0907 6.712C74.4214 6.584 74.8001 6.52 75.2267 6.52C76.2294 6.52 77.0241 6.89867 77.6108 7.656C78.2081 8.41333 78.5068 9.464 78.5068 10.808C78.5068 11.6613 78.3787 12.4133 78.1227 13.064C77.8774 13.7147 77.5201 14.2213 77.0507 14.584C76.5921 14.936 76.0534 15.112 75.4348 15.112ZM75.0507 13.72C75.6267 13.72 76.0641 13.464 76.3628 12.952C76.6721 12.4293 76.8267 11.688 76.8267 10.728C76.8267 9.81067 76.6614 9.112 76.3307 8.632C76.0001 8.152 75.5094 7.912 74.8587 7.912C74.5494 7.912 74.2401 7.96533 73.9307 8.072C73.6321 8.168 73.3654 8.312 73.1307 8.504V12.664C73.4081 12.9947 73.7121 13.256 74.0427 13.448C74.3734 13.6293 74.7094 13.72 75.0507 13.72ZM83.9041 15.112C82.6775 15.112 81.7441 14.7493 81.1041 14.024C80.4641 13.288 80.1441 12.2267 80.1441 10.84C80.1441 9.45333 80.4695 8.38667 81.1201 7.64C81.7708 6.89333 82.6988 6.52 83.9041 6.52C85.1095 6.52 86.0268 6.89333 86.6561 7.64C87.2961 8.376 87.6161 9.44267 87.6161 10.84C87.6161 12.2267 87.3015 13.288 86.6721 14.024C86.0428 14.7493 85.1201 15.112 83.9041 15.112ZM83.8721 13.752C84.5761 13.752 85.0935 13.512 85.4241 13.032C85.7655 12.552 85.9361 11.816 85.9361 10.824C85.9361 9.832 85.7655 9.096 85.4241 8.616C85.0935 8.12533 84.5761 7.88 83.8721 7.88C83.1788 7.88 82.6668 8.12533 82.3361 8.616C82.0055 9.096 81.8401 9.832 81.8401 10.824C81.8401 11.816 82.0001 12.552 82.3201 13.032C82.6508 13.512 83.1681 13.752 83.8721 13.752ZM92.1015 15.112C91.2908 15.112 90.6615 14.888 90.2135 14.44C89.7762 13.9813 89.5575 13.3413 89.5575 12.52V7C89.5575 6.73333 89.8028 6.6 90.2935 6.6H90.4695C90.9602 6.6 91.2055 6.73333 91.2055 7V12.328C91.2055 12.7653 91.3282 13.1067 91.5735 13.352C91.8188 13.5867 92.1762 13.704 92.6455 13.704C92.9868 13.704 93.3175 13.608 93.6375 13.416C93.9575 13.2133 94.2242 12.9573 94.4375 12.648V7C94.4375 6.73333 94.6828 6.6 95.1735 6.6H95.3495C95.8402 6.6 96.0855 6.73333 96.0855 7V12.504C96.0855 13.2187 96.1175 13.736 96.1815 14.056C96.2455 14.376 96.2775 14.5573 96.2775 14.6C96.2775 14.7493 96.1442 14.856 95.8775 14.92C95.6108 14.984 95.3655 15.016 95.1415 15.016C94.9815 15.016 94.8642 14.936 94.7895 14.776C94.7255 14.616 94.6722 14.4453 94.6295 14.264C94.5975 14.0827 94.5762 13.96 94.5655 13.896C94.2562 14.2693 93.8828 14.568 93.4455 14.792C93.0082 15.0053 92.5602 15.112 92.1015 15.112ZM100.624 15.032C100.197 15.032 99.9624 14.9413 99.9197 14.76L97.8397 7.208C97.7971 7.08 97.7758 6.984 97.7758 6.92C97.7758 6.70667 98.0424 6.6 98.5757 6.6C99.0771 6.6 99.3491 6.69067 99.3918 6.872L100.656 11.736C100.698 11.864 100.746 12.1093 100.8 12.472L100.96 13.352H101.024C101.034 13.288 101.061 13.1547 101.104 12.952C101.232 12.2693 101.312 11.8587 101.344 11.72L102.592 6.888C102.634 6.696 102.864 6.6 103.28 6.6H103.472C103.898 6.6 104.133 6.696 104.176 6.888L105.424 11.736C105.541 12.216 105.626 12.648 105.68 13.032C105.701 13.1173 105.722 13.2347 105.744 13.384H105.776C105.808 13.2453 105.856 12.9947 105.92 12.632C105.941 12.536 105.968 12.392 106 12.2C106.032 11.9973 106.064 11.848 106.096 11.752L107.344 6.872C107.386 6.69067 107.632 6.6 108.08 6.6C108.581 6.6 108.832 6.70667 108.832 6.92C108.832 6.97333 108.816 7.048 108.784 7.144L106.72 14.76C106.698 14.856 106.618 14.9253 106.48 14.968C106.352 15.0107 106.192 15.032 106 15.032H105.44C105.013 15.032 104.778 14.9413 104.736 14.76L103.552 10.04C103.52 9.93333 103.466 9.65067 103.392 9.192L103.344 8.84H103.296C103.274 9.01067 103.253 9.13867 103.232 9.224C103.2 9.58667 103.157 9.85867 103.104 10.04L101.904 14.76C101.882 14.856 101.808 14.9253 101.68 14.968C101.552 15.0107 101.392 15.032 101.2 15.032H100.624ZM117.957 15.112C115.29 15.112 113.957 13.6987 113.957 10.872C113.957 9.432 114.282 8.34933 114.933 7.624C115.583 6.888 116.517 6.52 117.733 6.52C118.853 6.52 119.69 6.88267 120.245 7.608C120.799 8.33333 121.077 9.36267 121.077 10.696C121.077 10.8027 120.997 10.952 120.837 11.144C120.687 11.336 120.565 11.432 120.469 11.432H115.685C115.749 12.2427 115.967 12.8347 116.341 13.208C116.714 13.5707 117.258 13.752 117.973 13.752C118.378 13.752 118.73 13.704 119.029 13.608C119.338 13.512 119.599 13.4107 119.813 13.304C120.037 13.1867 120.165 13.128 120.197 13.128C120.314 13.128 120.447 13.2507 120.597 13.496C120.757 13.7413 120.837 13.9227 120.837 14.04C120.837 14.2107 120.693 14.3813 120.405 14.552C120.127 14.712 119.765 14.8453 119.317 14.952C118.869 15.0587 118.415 15.112 117.957 15.112ZM119.397 10.152C119.397 9.416 119.253 8.856 118.965 8.472C118.687 8.07733 118.266 7.88 117.701 7.88C116.495 7.88 115.823 8.63733 115.685 10.152H119.397ZM123.766 15.032C123.275 15.032 123.03 14.8987 123.03 14.632V9.176C123.03 8.472 122.998 7.96 122.934 7.64C122.87 7.32 122.838 7.13867 122.838 7.096C122.838 6.94667 122.971 6.84 123.238 6.776C123.504 6.712 123.75 6.68 123.974 6.68C124.134 6.68 124.246 6.75467 124.31 6.904C124.384 7.05333 124.438 7.21333 124.47 7.384C124.512 7.55467 124.539 7.672 124.55 7.736C124.87 7.36267 125.248 7.06933 125.686 6.856C126.123 6.632 126.566 6.52 127.014 6.52C127.824 6.52 128.448 6.74933 128.886 7.208C129.334 7.656 129.558 8.29067 129.558 9.112V14.632C129.558 14.8987 129.312 15.032 128.822 15.032H128.646C128.155 15.032 127.91 14.8987 127.91 14.632V9.304C127.91 8.86667 127.787 8.53067 127.542 8.296C127.296 8.05067 126.939 7.928 126.47 7.928C126.128 7.928 125.798 8.02933 125.478 8.232C125.158 8.424 124.891 8.67467 124.678 8.984V14.632C124.678 14.8987 124.432 15.032 123.942 15.032H123.766ZM139.092 15.112C137.865 15.112 136.932 14.7493 136.292 14.024C135.652 13.288 135.332 12.2267 135.332 10.84C135.332 9.45333 135.657 8.38667 136.308 7.64C136.958 6.89333 137.886 6.52 139.092 6.52C140.297 6.52 141.214 6.89333 141.844 7.64C142.484 8.376 142.804 9.44267 142.804 10.84C142.804 12.2267 142.489 13.288 141.86 14.024C141.23 14.7493 140.308 15.112 139.092 15.112ZM139.06 13.752C139.764 13.752 140.281 13.512 140.612 13.032C140.953 12.552 141.124 11.816 141.124 10.824C141.124 9.832 140.953 9.096 140.612 8.616C140.281 8.12533 139.764 7.88 139.06 7.88C138.366 7.88 137.854 8.12533 137.524 8.616C137.193 9.096 137.028 9.832 137.028 10.824C137.028 11.816 137.188 12.552 137.508 13.032C137.838 13.512 138.356 13.752 139.06 13.752ZM145.625 15.032C145.134 15.032 144.889 14.8987 144.889 14.632V9.176C144.889 8.472 144.857 7.96 144.793 7.64C144.729 7.32 144.697 7.13867 144.697 7.096C144.697 6.94667 144.83 6.84 145.097 6.776C145.364 6.712 145.609 6.68 145.833 6.68C145.993 6.68 146.105 6.75467 146.169 6.904C146.244 7.05333 146.297 7.21333 146.329 7.384C146.372 7.55467 146.398 7.672 146.409 7.736C146.729 7.36267 147.108 7.06933 147.545 6.856C147.982 6.632 148.425 6.52 148.873 6.52C149.684 6.52 150.308 6.74933 150.745 7.208C151.193 7.656 151.417 8.29067 151.417 9.112V14.632C151.417 14.8987 151.172 15.032 150.681 15.032H150.505C150.014 15.032 149.769 14.8987 149.769 14.632V9.304C149.769 8.86667 149.646 8.53067 149.401 8.296C149.156 8.05067 148.798 7.928 148.329 7.928C147.988 7.928 147.657 8.02933 147.337 8.232C147.017 8.424 146.75 8.67467 146.537 8.984V14.632C146.537 14.8987 146.292 15.032 145.801 15.032H145.625ZM156.387 15.112C155.779 15.112 155.241 14.936 154.771 14.584C154.313 14.2213 153.955 13.7147 153.699 13.064C153.443 12.4133 153.315 11.6667 153.315 10.824C153.315 9.928 153.449 9.16 153.715 8.52C153.993 7.86933 154.377 7.37333 154.867 7.032C155.358 6.69067 155.934 6.52 156.595 6.52C157.022 6.52 157.401 6.584 157.731 6.712C158.073 6.84 158.398 7.02133 158.707 7.256V3.352C158.707 3.08533 158.947 2.952 159.427 2.952H159.603C160.094 2.952 160.339 3.08533 160.339 3.352V12.504C160.339 13.2187 160.371 13.736 160.435 14.056C160.499 14.376 160.531 14.5573 160.531 14.6C160.531 14.7493 160.398 14.856 160.131 14.92C159.865 14.984 159.619 15.016 159.395 15.016C159.235 15.016 159.118 14.936 159.043 14.776C158.979 14.616 158.926 14.4507 158.883 14.28C158.851 14.0987 158.83 13.976 158.819 13.912C158.115 14.712 157.305 15.112 156.387 15.112ZM156.787 13.72C157.118 13.72 157.449 13.6293 157.779 13.448C158.11 13.256 158.419 12.9947 158.707 12.664V8.504C158.195 8.10933 157.619 7.912 156.979 7.912C156.329 7.912 155.838 8.152 155.507 8.632C155.177 9.112 155.011 9.81067 155.011 10.728C155.011 11.688 155.161 12.4293 155.459 12.952C155.769 13.464 156.211 13.72 156.787 13.72ZM166.394 15.112C163.727 15.112 162.394 13.6987 162.394 10.872C162.394 9.432 162.719 8.34933 163.37 7.624C164.021 6.888 164.954 6.52 166.17 6.52C167.29 6.52 168.127 6.88267 168.682 7.608C169.237 8.33333 169.514 9.36267 169.514 10.696C169.514 10.8027 169.434 10.952 169.274 11.144C169.125 11.336 169.002 11.432 168.906 11.432H164.122C164.186 12.2427 164.405 12.8347 164.778 13.208C165.151 13.5707 165.695 13.752 166.41 13.752C166.815 13.752 167.167 13.704 167.466 13.608C167.775 13.512 168.037 13.4107 168.25 13.304C168.474 13.1867 168.602 13.128 168.634 13.128C168.751 13.128 168.885 13.2507 169.034 13.496C169.194 13.7413 169.274 13.9227 169.274 14.04C169.274 14.2107 169.13 14.3813 168.842 14.552C168.565 14.712 168.202 14.8453 167.754 14.952C167.306 15.0587 166.853 15.112 166.394 15.112ZM167.834 10.152C167.834 9.416 167.69 8.856 167.402 8.472C167.125 8.07733 166.703 7.88 166.138 7.88C164.933 7.88 164.261 8.63733 164.122 10.152H167.834ZM172.251 15.032C171.76 15.032 171.515 14.8987 171.515 14.632V9.176C171.515 8.472 171.483 7.96 171.419 7.64C171.355 7.32 171.323 7.13867 171.323 7.096C171.323 6.94667 171.456 6.84 171.723 6.776C171.99 6.712 172.235 6.68 172.459 6.68C172.619 6.68 172.731 6.75467 172.795 6.904C172.87 7.05333 172.923 7.21333 172.955 7.384C172.998 7.55467 173.024 7.672 173.035 7.736C173.579 6.92533 174.187 6.52 174.859 6.52C175.168 6.52 175.398 6.58933 175.547 6.728C175.707 6.86667 175.787 7.032 175.787 7.224C175.787 7.416 175.75 7.62933 175.675 7.864C175.6 8.09867 175.515 8.216 175.419 8.216C175.355 8.216 175.243 8.18933 175.083 8.136C174.934 8.08267 174.763 8.056 174.571 8.056C174.24 8.056 173.947 8.168 173.691 8.392C173.446 8.60533 173.264 8.80267 173.147 8.984V14.632C173.147 14.8987 172.907 15.032 172.427 15.032H172.251ZM178.142 15.032C177.663 15.032 177.423 14.8987 177.423 14.632V3.352C177.423 3.08533 177.663 2.952 178.142 2.952H178.319C178.809 2.952 179.055 3.08533 179.055 3.352V7.624C179.364 7.304 179.721 7.04267 180.127 6.84C180.543 6.62667 180.985 6.52 181.455 6.52C182.159 6.52 182.751 6.71733 183.231 7.112C183.71 7.50667 183.951 8.17333 183.951 9.112V14.632C183.951 14.8987 183.705 15.032 183.214 15.032H183.055C182.564 15.032 182.319 14.8987 182.319 14.632V9.304C182.319 8.86667 182.196 8.53067 181.951 8.296C181.705 8.05067 181.343 7.928 180.863 7.928C180.553 7.928 180.265 8.00267 179.999 8.152C179.732 8.29067 179.513 8.45067 179.342 8.632C179.182 8.80267 179.086 8.92 179.055 8.984V14.632C179.055 14.8987 178.809 15.032 178.319 15.032H178.142ZM189.685 15.112C188.459 15.112 187.525 14.7493 186.885 14.024C186.245 13.288 185.925 12.2267 185.925 10.84C185.925 9.45333 186.251 8.38667 186.901 7.64C187.552 6.89333 188.48 6.52 189.685 6.52C190.891 6.52 191.808 6.89333 192.437 7.64C193.077 8.376 193.397 9.44267 193.397 10.84C193.397 12.2267 193.083 13.288 192.453 14.024C191.824 14.7493 190.901 15.112 189.685 15.112ZM189.653 13.752C190.357 13.752 190.875 13.512 191.205 13.032C191.547 12.552 191.717 11.816 191.717 10.824C191.717 9.832 191.547 9.096 191.205 8.616C190.875 8.12533 190.357 7.88 189.653 7.88C188.96 7.88 188.448 8.12533 188.117 8.616C187.787 9.096 187.621 9.832 187.621 10.824C187.621 11.816 187.781 12.552 188.101 13.032C188.432 13.512 188.949 13.752 189.653 13.752ZM197.883 15.112C197.072 15.112 196.443 14.888 195.995 14.44C195.557 13.9813 195.339 13.3413 195.339 12.52V7C195.339 6.73333 195.584 6.6 196.075 6.6H196.251C196.741 6.6 196.987 6.73333 196.987 7V12.328C196.987 12.7653 197.109 13.1067 197.355 13.352C197.6 13.5867 197.957 13.704 198.427 13.704C198.768 13.704 199.099 13.608 199.419 13.416C199.739 13.2133 200.005 12.9573 200.219 12.648V7C200.219 6.73333 200.464 6.6 200.955 6.6H201.131C201.621 6.6 201.867 6.73333 201.867 7V12.504C201.867 13.2187 201.899 13.736 201.963 14.056C202.027 14.376 202.059 14.5573 202.059 14.6C202.059 14.7493 201.925 14.856 201.659 14.92C201.392 14.984 201.147 15.016 200.923 15.016C200.763 15.016 200.645 14.936 200.571 14.776C200.507 14.616 200.453 14.4453 200.411 14.264C200.379 14.0827 200.357 13.96 200.347 13.896C200.037 14.2693 199.664 14.568 199.227 14.792C198.789 15.0053 198.341 15.112 197.883 15.112ZM206.981 15.112C206.373 15.112 205.834 14.936 205.365 14.584C204.906 14.2213 204.549 13.7147 204.293 13.064C204.037 12.4133 203.909 11.6667 203.909 10.824C203.909 9.928 204.042 9.16 204.309 8.52C204.586 7.86933 204.97 7.37333 205.461 7.032C205.952 6.69067 206.528 6.52 207.189 6.52C207.616 6.52 207.994 6.584 208.325 6.712C208.666 6.84 208.992 7.02133 209.301 7.256V3.352C209.301 3.08533 209.541 2.952 210.021 2.952H210.197C210.688 2.952 210.933 3.08533 210.933 3.352V12.504C210.933 13.2187 210.965 13.736 211.029 14.056C211.093 14.376 211.125 14.5573 211.125 14.6C211.125 14.7493 210.992 14.856 210.725 14.92C210.458 14.984 210.213 15.016 209.989 15.016C209.829 15.016 209.712 14.936 209.637 14.776C209.573 14.616 209.52 14.4507 209.477 14.28C209.445 14.0987 209.424 13.976 209.413 13.912C208.709 14.712 207.898 15.112 206.981 15.112ZM207.381 13.72C207.712 13.72 208.042 13.6293 208.373 13.448C208.704 13.256 209.013 12.9947 209.301 12.664V8.504C208.789 8.10933 208.213 7.912 207.573 7.912C206.922 7.912 206.432 8.152 206.101 8.632C205.77 9.112 205.605 9.81067 205.605 10.728C205.605 11.688 205.754 12.4293 206.053 12.952C206.362 13.464 206.805 13.72 207.381 13.72Z" transform="translate(0 82)" fill="black"/>
</svg>
