<?xml version="1.0" encoding="utf-8"?>
<!-- Generator: Adobe Illustrator 28.1.0, SVG Export Plug-In . SVG Version: 6.00 Build 0)  -->
<svg version="1.1" id="Layer_1" xmlns="http://www.w3.org/2000/svg" xmlns:xlink="http://www.w3.org/1999/xlink" x="0px" y="0px"
	 viewBox="0 0 500 500" style="enable-background:new 0 0 500 500;" xml:space="preserve">
<style type="text/css">
	.st0{fill:#58BCEB;}
	.st1{opacity:0.7;fill:#58BCEB;enable-background:new    ;}
	.st2{fill:none;stroke:#263238;stroke-width:1.1663;stroke-linecap:round;stroke-linejoin:round;}
	.st3{fill:#263238;stroke:#263238;stroke-width:1.1663;stroke-linecap:round;stroke-linejoin:round;}
	.st4{fill:#4C4C4C;stroke:#263238;stroke-width:1.1663;stroke-linecap:round;stroke-linejoin:round;}
	.st5{fill:#FFFFFF;stroke:#263238;stroke-width:1.1663;stroke-linecap:round;stroke-linejoin:round;}
	.st6{fill:#CCCCCC;stroke:#263238;stroke-width:1.1663;stroke-linecap:round;stroke-linejoin:round;}
	.st7{fill:#263238;}
	.st8{fill:#263238;stroke:#263238;stroke-width:1.1663;stroke-miterlimit:10;}
	.st9{fill:#FFFFFF;stroke:#263238;stroke-width:1.1663;stroke-miterlimit:10;}
	.st10{fill:#EBF9FF;stroke:#263238;stroke-width:1.1663;stroke-miterlimit:10;}
	.st11{fill:none;stroke:#263238;stroke-width:1.1663;stroke-miterlimit:10;}
	.st12{fill:#C4D9FC;stroke:#263238;stroke-width:1.1663;stroke-linecap:round;stroke-linejoin:round;}
</style>
<g id="freepik--background-simple--inject-3">
	<path class="st0" d="M55.5,273.7c0,0,2.3,72,62.4,120s143.4,51.4,210.8,56s119.2-33.6,127-91.3s-43.7-74.6-71.7-140.3
		s-25.4-87.3-84.6-127.7S147.8,74.8,99.3,144S55.5,273.7,55.5,273.7z"/>
	<path class="st1" d="M55.5,273.7c0,0,2.3,72,62.4,120s143.4,51.4,210.8,56s119.2-33.6,127-91.3s-43.7-74.6-71.7-140.3
		s-25.4-87.3-84.6-127.7S147.8,74.8,99.3,144S55.5,273.7,55.5,273.7z"/>
</g>
<g id="freepik--Padlock--inject-3">
	<path class="st2" d="M83.6,179.7v-25.8c0-18.2,15.2-33.1,33.8-33.1s33.8,14.8,33.8,33.1v25.8h13.5v-25.8
		c0-25.5-21.2-46.3-47.3-46.3s-47.3,20.8-47.3,46.3v25.8H83.6z"/>
	<rect x="65.1" y="179.9" class="st2" width="103.2" height="85.4"/>
	<path class="st2" d="M127.5,215.3c-0.2-6.2-5.4-11.1-11.6-10.9c-5.9,0.2-10.7,5-10.9,10.9c0,4.1,2.3,7.8,5.9,9.7l-1.9,19.4h14.4
		l-1.9-19.4C125.2,223.1,127.4,219.4,127.5,215.3z"/>
</g>
<g id="freepik--Character--inject-3">
	<polygon class="st3" points="232.6,268 206.9,266.3 206.9,265.9 203.8,266.1 200.6,265.9 200.6,266.3 174.9,268 156,423.8 
		174.9,423.8 203.2,299.6 204.4,299.6 232.6,423.8 251.6,423.8 	"/>
	<path class="st4" d="M156,423.8l-4.6,7.2l-14.3,6.3c-1.5,0.8-2.5,2.5-2.5,4.2v5.5h40.8c0.2-2.9,0.2-5.9,0-8.8
		c-0.4-4.2-0.4-14.3-0.4-14.3H156z"/>
	<path class="st3" d="M134.5,442.3v4.6h40.8c0,0,0.2-2,0.2-4.6H134.5z"/>
	<path class="st4" d="M251.5,423.8l4.6,7.2l14.3,6.3c1.5,0.8,2.5,2.5,2.5,4.2v5.5h-40.8c-0.2-2.9-0.2-5.9,0-8.8
		c0.4-4.2,0.4-14.3,0.4-14.3H251.5z"/>
	<path class="st3" d="M273,442.3v4.6h-40.9c0,0-0.2-2-0.2-4.6H273z"/>
	<path class="st5" d="M164.1,195.5c0,0-30,42.2-30,45.2s4.8,26.9,12.4,29.2s11.8-1.7,13.2-9.5s-3.4-19.1-3.4-19.1l14-12.6
		L164.1,195.5z"/>
	<path class="st6" d="M158.2,259.3c0,0,8.7-1.4,10.9-0.9s3.9,5.9,3.9,5.9s0.8,7.9-0.6,9.5s-8.1,3.6-10.9,4.2s-8.7-5.9-11-9.8
		S152.4,257.6,158.2,259.3z"/>
	<polygon class="st5" points="170.4,193.6 164.1,195.5 174,261.9 233.1,261.9 242.1,195.9 234.1,192.8 204.4,186.3 	"/>
	<polygon class="st3" points="236.3,215.8 235,225.3 224.7,227.8 214.2,223.6 214.9,215 	"/>
	<circle class="st4" cx="225.4" cy="223.5" r="1.8"/>
	<polygon class="st3" points="198.1,198.6 203.6,205.1 196.6,250.2 204,262 212.8,249.6 205.4,205.3 211.7,199.1 205,190.5 	"/>
	<polygon class="st3" points="192.8,187.3 167.3,193.6 168.1,196.7 192.9,189.8 	"/>
	<polygon class="st3" points="213.6,186.5 239,192.8 238.3,195.9 213.4,189 	"/>
	<path class="st5" d="M239,192.8c0,0,9.6,2.2,15.5,5.5s7.3,10.9,3.9,19.4s-13.8,7.3-18.5,5s-6.2-10.7-5.3-14.3"/>
	<polygon class="st5" points="193.9,184 191,185.9 191.8,205.3 204.2,196.5 217.2,205.4 218.4,186.3 214.9,183.5 	"/>
	<path class="st5" d="M219,161.1c0,0,7.1-1.7,8.4-8.8s-11.4-15.7-20.2-17.2s-21.8,7.6-23.9,13.9s6.1,12.6,14.9,13.9
		S219,161.1,219,161.1z"/>
	<path class="st6" d="M192.7,162.2c0,0-3.8-5.9-4.8-0.8s3.1,7.4,4.8,7.2S192.7,162.2,192.7,162.2z"/>
	<path class="st6" d="M217.5,162.2c0,0,3.8-5.9,4.8-0.8s-3,7.4-4.8,7.2S217.5,162.2,217.5,162.2z"/>
	<polygon class="st6" points="193.5,173.9 193.5,186.5 204.2,196.5 216.3,186.1 216.3,174.3 	"/>
	<path class="st6" d="M191.9,158.4c0,0-0.6,11.8,0.4,15.6s7.2,11.8,12.2,13.6s11.8-8.6,13.4-12s0.9-17.9,0.9-17.9s-2.1-5-6.3-6.5
		S195.4,147,191.9,158.4z"/>
	<path class="st7" d="M199.9,164.7c0,0.9-0.4,1.6-0.9,1.6s-0.9-0.7-0.9-1.6s0.4-1.6,0.9-1.6S199.9,163.8,199.9,164.7z"/>
	<path class="st7" d="M211.6,164.7c0,0.9-0.4,1.6-0.9,1.6s-0.9-0.7-0.9-1.6s0.4-1.6,0.9-1.6S211.6,163.8,211.6,164.7z"/>
	<path class="st6" d="M201.8,169.2c-0.7-0.2-1.4,0.3-1.5,0.9c-0.2,0.7,0.3,1.4,0.9,1.5c0.2,0,0.4,0,0.6,0c0.4,0,0.8-0.1,1.1-0.4
		c1.1,1.4,3.2,1.5,4.5,0.4c0.1-0.1,0.2-0.2,0.3-0.3c0.3,0.2,0.6,0.3,1,0.3c0.7,0.2,1.4-0.3,1.5-0.9c0.2-0.7-0.3-1.4-0.9-1.5
		c-0.2,0-0.4,0-0.6,0"/>
	<line class="st2" x1="203.4" y1="177.1" x2="207.4" y2="177.1"/>
	<path class="st3" d="M191.5,161.3c0,0,0.1,3.8,1.4,2.8s1.7-7.5,0.6-8.4S191.5,159.3,191.5,161.3z"/>
	<path class="st3" d="M216.1,161.3c0,0,0.1,3.8,1.4,2.8s1.7-7.5,0.6-8.4S216.1,159.3,216.1,161.3z"/>
	<path class="st4" d="M191.5,158.1c0,0,0.4,0.4,0.4,0.5c1.9,1,6.1,2.8,13,3.2c4.9,0.2,9.7-1,14-3.4c0-0.5,0-0.8,0-0.8
		c-0.2-4.5-3.5-7.4-7.6-8.6c-4-1.1-8.3-0.9-12.2,0.6c-2,0.7-3.7,2-5.1,3.6C193.5,153.9,190.8,157.6,191.5,158.1z"/>
	<path class="st4" d="M191.9,158.4c4.3,0.9,8.6,1.3,13,0.9c8.2-0.4,13.9-0.9,13.9-0.9c-3.8,3.5-8.6,5.7-13.8,6.1
		C199.9,164.8,195,162.5,191.9,158.4z"/>
	<polygon class="st3" points="171,215.8 172.3,225.3 182.6,227.8 193.1,223.6 192.4,215 	"/>
	<circle class="st4" cx="181.9" cy="223.5" r="1.8"/>
	<rect x="173.1" y="261.2" class="st4" width="60.6" height="9.5"/>
	<path class="st4" d="M171.6,261.8h13.2c1.5,0,2.7,1.2,2.7,2.7v6.4c0,1.5-1.2,2.7-2.7,2.7h-13.2c-1.5,0-2.7-1.2-2.7-2.7v-6.4
		C168.9,263,170.1,261.8,171.6,261.8z"/>
	<path class="st4" d="M219.9,261.8h13.2c1.5,0,2.7,1.2,2.7,2.7v6.4c0,1.5-1.2,2.7-2.7,2.7h-13.2c-1.5,0-2.7-1.2-2.7-2.7v-6.4
		C217.2,263,218.4,261.8,219.9,261.8z"/>
	<rect x="197.8" y="261.8" class="st5" width="13.2" height="8.4"/>
	<path class="st2" d="M156.3,241.3c0,0-8.4-0.6-11.5-5.9"/>
	<ellipse class="st5" cx="249.9" cy="202" rx="13.9" ry="14.6"/>
	<ellipse class="st5" cx="249.9" cy="194.6" rx="10.9" ry="9.8"/>
	<ellipse class="st6" cx="249.9" cy="187.5" rx="10.9" ry="9.8"/>
	<path class="st6" d="M232.4,166.4c0,0,0.2,14.4,0.9,18.6s3.7,9.8,7.8,9.8c2.7-0.1,5.4-0.6,7.9-1.5c0,0,4.8,2.6,9.4,1.8
		c4.6-0.7,3.9-7.2,3.9-10s-0.5-23.6-0.5-23.6s0.4-2-1.5-2.4c-0.9-0.2-1.8-0.3-2.8-0.4v-4.4c-0.7-1-1.9-1.6-3.1-1.5
		c-2.4,0-2.6,0.6-2.6,0.6v-4.1c0,0-2-3.2-4.6-1.7c-1.1,0.6-1.8,1.7-1.8,2.9l-0.2,3.9c0,0-4.4-1.7-4.8,0.9s-1.1,18.5-1.1,18.5
		c-0.3-2.5-0.8-5-1.5-7.4C236.9,164.2,232.4,164.2,232.4,166.4z"/>
	<line class="st2" x1="245.1" y1="154.6" x2="245.5" y2="171.6"/>
	<line class="st2" x1="251.8" y1="153.5" x2="252" y2="171.8"/>
	<line class="st2" x1="257.5" y1="158.9" x2="257.1" y2="171.6"/>
	<line class="st2" x1="242.8" y1="171.4" x2="259.5" y2="172.1"/>
	<path class="st2" d="M239.2,174c0,1.4,0.7,2.7,1.8,3.6c1.8,1.1,5.9,4.1,6.4,8.9"/>
</g>
<g>
	<path class="st7" d="M350,128.8v2.2h-5.3v7.8h6.5v2.2h-9v-21.8h9v2.2h-6.5v7.4L350,128.8z"/>
	<path class="st7" d="M358.3,119.2c3.4,0,4.9,1.7,4.9,5v1.8c0,2.4-0.8,3.9-2.7,4.5c2,0.6,2.7,2.2,2.7,4.6v3.4
		c-0.1,0.9,0.1,1.8,0.4,2.6h-2.5c-0.3-0.8-0.5-1.7-0.4-2.6v-3.4c0-2.5-1.1-3.2-3.2-3.2h-1.7v9.3h-2.4v-21.8L358.3,119.2z
		 M357.7,129.4c1.9,0,3.1-0.6,3.1-3v-2.1c0-2-0.7-3-2.5-3h-2.4v8.1L357.7,129.4z"/>
	<path class="st7" d="M370.6,119.2c3.4,0,4.9,1.7,4.9,5v1.8c0,2.4-0.8,3.9-2.7,4.5c2,0.6,2.7,2.2,2.7,4.6v3.4
		c-0.1,0.9,0.1,1.8,0.4,2.6h-2.5c-0.3-0.8-0.5-1.7-0.4-2.6v-3.4c0-2.5-1.1-3.2-3.2-3.2h-1.7v9.3h-2.4v-21.8L370.6,119.2z M370,129.4
		c1.9,0,3.1-0.6,3.1-3v-2.1c0-2-0.7-3-2.5-3h-2.4v8.1L370,129.4z"/>
	<path class="st7" d="M377.8,124.4c0-3.3,1.6-5.5,5-5.5s5,2.2,5,5.5v11.3c0,3.3-1.6,5.5-5,5.5s-5-2.2-5-5.5V124.4z M380.2,135.8
		c0,2,0.8,3.1,2.6,3.1s2.6-1.1,2.6-3.1v-11.5c0-2-0.8-3.2-2.6-3.2s-2.6,1.2-2.6,3.2V135.8z"/>
	<path class="st7" d="M395,119.2c3.4,0,4.9,1.7,4.9,5v1.8c0,2.4-0.8,3.9-2.7,4.5c2,0.6,2.7,2.2,2.7,4.6v3.4
		c-0.1,0.9,0.1,1.8,0.4,2.6h-2.5c-0.3-0.8-0.5-1.7-0.4-2.6v-3.4c0-2.5-1.1-3.2-3.2-3.2h-1.7v9.3h-2.5v-21.8L395,119.2z M394.4,129.4
		c1.9,0,3.1-0.6,3.1-3v-2.1c0-2-0.7-3-2.5-3h-2.4v8.1L394.4,129.4z"/>
</g>
<path class="st7" d="M329.4,264.9v2.2h-5v9.4H322v-21.8h8.7v2.2h-6.2v7.9H329.4z"/>
<path class="st7" d="M332.3,260c0-3.3,1.7-5.5,5-5.5s5,2.2,5,5.5v11.3c0,3.3-1.6,5.5-5,5.5s-5-2.2-5-5.5V260z M334.7,271.4
	c0,2,0.8,3.1,2.6,3.1s2.6-1.1,2.6-3.1v-11.5c0-2-0.8-3.1-2.6-3.1s-2.6,1.2-2.6,3.1V271.4z"/>
<path class="st7" d="M349.5,254.7c3.4,0,4.9,1.7,4.9,5v1.8c0,2.4-0.8,3.9-2.7,4.5c2,0.6,2.7,2.2,2.7,4.5v3.4
	c-0.1,0.9,0.1,1.8,0.4,2.6h-2.5c-0.4-0.8-0.5-1.7-0.4-2.6v-3.4c0-2.5-1.1-3.2-3.2-3.2h-1.7v9.3h-2.4v-21.8L349.5,254.7z M348.9,265
	c1.9,0,3.1-0.6,3.1-3v-2.1c0-2-0.7-3-2.5-3h-2.4v8.1H348.9z"/>
<path class="st7" d="M361.8,254.7c3.4,0,4.7,1.6,4.7,4.8v1c0,2.3-0.7,3.7-2.6,4.3c2.1,0.6,2.9,2.3,2.9,4.7v1.8c0,3.3-1.6,5.1-5,5.1
	h-5v-21.8L361.8,254.7z M361.2,264c1.9,0,2.9-0.6,2.9-2.9v-1.3c0-1.9-0.7-2.9-2.4-2.9h-2.4v7L361.2,264z M361.9,274.3
	c1.8,0,2.6-0.9,2.6-3v-1.9c0-2.4-1-3.2-3-3.2h-2.1v8.1L361.9,274.3z"/>
<path class="st7" d="M371.5,254.7v21.8h-2.4v-21.8H371.5z"/>
<path class="st7" d="M379.1,254.7c3.4,0,5,2,5,5.4v11c0,3.3-1.6,5.4-5,5.4H374v-21.8L379.1,254.7z M379.1,274.3
	c1.8,0,2.6-1.1,2.6-3.1V260c0-2-0.8-3.1-2.6-3.1h-2.6v17.4L379.1,274.3z"/>
<path class="st7" d="M391.5,254.7c3.4,0,5,2,5,5.4v11c0,3.3-1.6,5.4-5,5.4h-5.1v-21.8L391.5,254.7z M391.5,274.3
	c1.7,0,2.6-1.1,2.6-3.1V260c0-2-0.8-3.1-2.6-3.1h-2.6v17.4L391.5,274.3z"/>
<path class="st7" d="M406.5,264.4v2.2h-5.3v7.8h6.5v2.2h-9v-21.8h9v2.2h-6.5v7.4H406.5z"/>
<path class="st7" d="M412.1,276.5h-2.2v-21.8h3.1l5,15.8v-15.8h2.1v21.8h-2.5l-5.6-17.6L412.1,276.5z"/>
<g id="freepik--security-barrier--inject-3">
	<polygon class="st8" points="86.9,446.5 72.6,446.5 91.6,314 105.9,314 	"/>
	<polygon class="st9" points="115.4,446.5 129.6,446.5 110.6,314 96.4,314 	"/>
	<polygon class="st8" points="289.2,446.5 274.9,446.5 293.9,314 308.2,314 	"/>
	<polygon class="st9" points="317.7,446.5 332,446.5 312.9,314 298.7,314 	"/>
	<rect x="55.7" y="293.2" class="st10" width="271.9" height="26.4"/>
	<rect x="62.4" y="293.2" class="st10" width="271.9" height="26.4"/>
	<polygon class="st7" points="66.8,319.6 89.9,319.6 101.8,293.2 78.7,293.2 	"/>
	<polygon class="st7" points="158.2,293.2 135.1,293.2 123.2,319.6 146.2,319.6 	"/>
	<polygon class="st7" points="327.2,293.2 304.1,293.2 292.2,319.6 315.3,319.6 	"/>
	<polygon class="st7" points="270.9,293.2 247.8,293.2 235.9,319.6 258.9,319.6 	"/>
	<polygon class="st7" points="214.5,293.2 191.4,293.2 179.5,319.6 202.6,319.6 	"/>
	<line class="st11" x1="332.8" y1="304.9" x2="287.8" y2="304.9"/>
	<line class="st11" x1="332" y1="309.3" x2="324.9" y2="309.3"/>
	<line class="st11" x1="61.2" y1="308.2" x2="106.2" y2="308.2"/>
	<line class="st11" x1="62" y1="303.2" x2="118.8" y2="303.2"/>
	<rect x="331.4" y="440.7" class="st3" width="77.1" height="5.8"/>
	<polygon class="st12" points="395.5,440.6 344.4,440.6 364.4,331.6 375.5,331.6 	"/>
	<polygon class="st5" points="357,372.1 382.9,372.1 380.4,358.6 359.5,358.6 	"/>
	<line class="st2" x1="387.8" y1="422.4" x2="389.1" y2="429.8"/>
	<line class="st2" x1="373.2" y1="337.6" x2="386.2" y2="413"/>
</g>
<g>
	<path class="st7" d="M340.3,218.5H334v16.2h-11.7v-16.2h-22.9V208l20.7-50.8h14v50.3h6.3V218.5z M322.3,207.4V177l-11.8,30.5H322.3
		z"/>
	<path class="st7" d="M353.2,230.6c-3.5-3.4-5.2-8-5.2-13.6v-42.3c0-5.6,1.7-10.1,5.2-13.6c3.5-3.4,8-5.1,13.6-5.1
		c5.6,0,10.1,1.7,13.6,5.1c3.5,3.4,5.2,8,5.2,13.6V217c0,5.6-1.7,10.1-5.2,13.6c-3.5,3.4-8,5.1-13.6,5.1
		C361.2,235.8,356.6,234,353.2,230.6z M372,222.7c1.3-1.3,1.9-3.2,1.9-5.6v-42.3c0-2.4-0.6-4.3-1.9-5.6c-1.3-1.3-3-2-5.2-2
		c-2.2,0-4,0.7-5.2,2c-1.3,1.3-1.9,3.2-1.9,5.6V217c0,2.4,0.6,4.3,1.9,5.6c1.3,1.3,3,2,5.2,2C369,224.7,370.7,224,372,222.7z"/>
	<path class="st7" d="M434.5,218.5h-6.3v16.2h-11.7v-16.2h-22.9V208l20.7-50.8h14v50.3h6.3V218.5z M416.4,207.4V177l-11.8,30.5
		H416.4z"/>
</g>
</svg>
